<svg width="81" height="41" viewBox="0 0 81 41" fill="none" xmlns="http://www.w3.org/2000/svg">
<g clip-path="url(#clip0_639_10223)">
<mask id="mask0_639_10223" style="mask-type:luminance" maskUnits="userSpaceOnUse" x="20" y="0" width="41" height="41">
<path d="M60.6201 0.159668H20.6201V40.1597H60.6201V0.159668Z" fill="white"/>
</mask>
<g mask="url(#mask0_639_10223)">
<path d="M40.6201 15.6896C40.6201 14.6875 41.4325 13.8751 42.4346 13.8751C43.4367 13.8751 44.2491 14.6875 44.2491 15.6896V14.4919C44.2491 13.4898 45.0615 12.6774 46.0636 12.6774C47.0658 12.6774 47.8782 13.4898 47.8782 14.4919V13.0472C47.8782 12.0298 48.7108 11.1777 49.728 11.1971C50.7138 11.216 51.5072 12.021 51.5072 13.0113V14.4919C51.5072 13.4898 52.3196 12.6774 53.3217 12.6774C54.3238 12.6774 55.1362 13.4898 55.1362 14.4919V32.03C55.1362 33.4275 54.6253 34.7054 53.7802 35.6878C53.229 36.3285 52.9299 37.148 52.9299 37.9932V39.5489C52.9299 39.8864 52.6869 40.1601 52.3873 40.1601H42.5323C42.2327 40.1601 41.9897 39.8865 41.9897 39.5489V36.8502C41.9897 36.1916 41.8079 35.5453 41.4605 34.9858C40.9278 34.1273 40.6201 33.1146 40.6201 32.0301V15.6896Z" fill="url(#paint0_linear_639_10223)"/>
<path d="M46.8162 27.2188C51.2777 27.2188 54.8946 29.3959 54.8946 32.0815C54.8946 34.7672 51.2777 36.9443 46.8162 36.9443C44.9509 36.9443 43.2335 36.5636 41.8661 35.9244C41.7774 35.595 41.6422 35.2783 41.4606 34.9857C40.9278 34.1273 40.6201 33.1146 40.6201 32.03V28.9616C42.102 27.8964 44.3275 27.2188 46.8162 27.2188Z" fill="url(#paint1_linear_639_10223)"/>
<path d="M51.9026 28.5021C52.7822 28.5021 53.5793 28.8537 54.1622 29.4235L56.356 27.2298C57.4169 26.1689 59.137 26.1689 60.1979 27.2298C60.7607 27.7926 60.7607 28.7049 60.1979 29.2676L53.7948 35.6708C52.7654 36.8774 51.2339 37.6428 49.5235 37.6428H48.3063C46.7753 37.6428 45.5342 36.4016 45.5342 34.8706C45.5342 31.3533 48.3855 28.5021 51.9026 28.5021Z" fill="url(#paint2_linear_639_10223)"/>
<path d="M51.5078 14.4918V24.1976H52C53.7321 24.1976 55.1364 25.602 55.1364 27.334V14.4918C55.1364 13.4899 54.3242 12.6772 53.3224 12.6772C52.32 12.6772 51.5078 13.4899 51.5078 14.4918Z" fill="url(#paint3_linear_639_10223)"/>
<path d="M47.8789 13.0114V24.1977H51.5081V13.0114C51.5081 12.009 50.6954 11.1968 49.6935 11.1968C48.6911 11.1968 47.8789 12.009 47.8789 13.0114Z" fill="url(#paint4_linear_639_10223)"/>
<path d="M44.249 14.4918V24.1976H47.8782V14.4918C47.8782 13.4899 47.066 12.6772 46.0636 12.6772C45.0617 12.6772 44.249 13.4899 44.249 14.4918Z" fill="url(#paint5_linear_639_10223)"/>
<path d="M40.6211 15.6896V27.334C40.6211 25.6019 42.0254 24.1976 43.7575 24.1976H44.2497V15.6896C44.2497 14.6873 43.4375 13.875 42.4351 13.875C41.4332 13.875 40.6211 14.6873 40.6211 15.6896Z" fill="url(#paint6_linear_639_10223)"/>
<path d="M58.019 31.4686L53.7931 35.679C52.7614 36.8837 51.2285 37.6462 49.5182 37.643L48.301 37.6408L46.2271 37.6369C43.1274 37.6312 40.6193 35.1138 40.625 32.0141L40.6261 31.4365L58.019 31.4686Z" fill="url(#paint7_linear_639_10223)"/>
<path d="M60.1981 29.2672L53.795 35.6704C53.7919 35.6743 53.7887 35.6774 53.7856 35.6813C53.784 35.6829 53.7817 35.6853 53.7801 35.6876C53.2287 36.3284 52.9299 37.148 52.9299 37.9927V39.5488C52.9299 39.886 52.6868 40.1598 52.3872 40.1598H50.5707L40.6201 30.21V15.6892C40.6201 14.6876 41.4326 13.8751 42.4342 13.8751C43.4366 13.8751 44.2491 14.6876 44.2491 15.6892V14.4915C44.2491 13.49 45.0617 12.6774 46.0632 12.6774C47.0656 12.6774 47.8781 13.49 47.8781 14.4915V13.0468C47.8781 12.0296 48.7111 11.1778 49.7283 11.1966C50.7134 11.2155 51.5072 12.0209 51.5072 13.0115V14.4915C51.5072 13.9904 51.7103 13.537 52.0389 13.2092C52.3668 12.8805 52.8209 12.6774 53.3213 12.6774C54.3236 12.6774 55.1362 13.49 55.1362 14.4915V28.4492L56.3558 27.2296C57.417 26.1684 59.137 26.1684 60.1981 27.2296C60.7605 27.7919 60.7605 28.7049 60.1981 29.2672Z" fill="url(#paint8_linear_639_10223)"/>
<path d="M40.6206 15.6896C40.6206 14.6875 39.8082 13.8751 38.8061 13.8751C37.8039 13.8751 36.9915 14.6875 36.9915 15.6896V14.4919C36.9915 13.4898 36.1792 12.6774 35.177 12.6774C34.1749 12.6774 33.3625 13.4898 33.3625 14.4919V13.0472C33.3625 12.0298 32.5299 11.1777 31.5126 11.1971C30.5268 11.216 29.7335 12.021 29.7335 13.0113V14.4919C29.7335 13.4898 28.9211 12.6774 27.919 12.6774C26.9169 12.6774 26.1045 13.4898 26.1045 14.4919V32.03C26.1045 33.4275 26.6154 34.7054 27.4605 35.6878C28.0117 36.3285 28.3108 37.148 28.3108 37.9932V39.5489C28.3108 39.8864 28.5537 40.1601 28.8534 40.1601H38.7084C39.008 40.1601 39.251 39.8865 39.251 39.5489V36.8502C39.251 36.1916 39.4328 35.5453 39.7802 34.9858C40.3129 34.1273 40.6206 33.1146 40.6206 32.0301V15.6896Z" fill="url(#paint9_linear_639_10223)"/>
<path d="M34.4241 27.2188C29.9626 27.2188 26.3457 29.3959 26.3457 32.0815C26.3457 34.7672 29.9626 36.9443 34.4241 36.9443C36.2894 36.9443 38.0068 36.5636 39.3742 35.9244C39.4629 35.595 39.5981 35.2783 39.7797 34.9857C40.3125 34.1273 40.6202 33.1146 40.6202 32.03V28.9616C39.1383 27.8964 36.9128 27.2188 34.4241 27.2188Z" fill="url(#paint10_linear_639_10223)"/>
<path d="M29.3375 28.5021C28.4579 28.5021 27.6608 28.8537 27.0779 29.4235L24.8841 27.2298C23.8232 26.1689 22.1031 26.1689 21.0422 27.2298C20.4794 27.7926 20.4794 28.7049 21.0422 29.2676L27.4453 35.6708C28.4747 36.8774 30.0062 37.6428 31.7166 37.6428H32.9338C34.4648 37.6428 35.7059 36.4016 35.7059 34.8706C35.7058 31.3533 32.8546 28.5021 29.3375 28.5021Z" fill="url(#paint11_linear_639_10223)"/>
<path d="M29.7331 14.4918V24.1976H29.2409C27.5088 24.1976 26.1045 25.602 26.1045 27.334V14.4918C26.1045 13.4899 26.9167 12.6772 27.9185 12.6772C28.921 12.6772 29.7331 13.4899 29.7331 14.4918Z" fill="url(#paint12_linear_639_10223)"/>
<path d="M33.3616 13.0114V24.1977H29.7324V13.0114C29.7324 12.009 30.5451 11.1968 31.547 11.1968C32.5494 11.1968 33.3616 12.009 33.3616 13.0114Z" fill="url(#paint13_linear_639_10223)"/>
<path d="M36.9915 14.4918V24.1976H33.3623V14.4918C33.3623 13.4899 34.1745 12.6772 35.1769 12.6772C36.1788 12.6772 36.9915 13.4899 36.9915 14.4918Z" fill="url(#paint14_linear_639_10223)"/>
<path d="M40.6198 15.6896V27.334C40.6198 25.6019 39.2155 24.1976 37.4834 24.1976H36.9912V15.6896C36.9912 14.6873 37.8034 13.875 38.8058 13.875C39.8077 13.875 40.6198 14.6873 40.6198 15.6896Z" fill="url(#paint15_linear_639_10223)"/>
<path d="M23.2207 31.4686L27.4467 35.679C28.4784 36.8837 30.0112 37.6462 31.7215 37.643L32.9387 37.6408L35.0126 37.6369C38.1123 37.6312 40.6204 35.1138 40.6147 32.0141L40.6136 31.4365L23.2207 31.4686Z" fill="url(#paint16_linear_639_10223)"/>
<path d="M40.6205 15.6892V30.2099L32.5467 22.1362C30.3075 19.9747 28.9609 17.6845 28.5381 15.3135C28.3867 14.4641 28.3836 13.6076 28.5193 12.7794C29.2267 13.0272 29.7334 13.7002 29.7334 14.4915V13.0115C29.7334 12.0209 30.5271 11.2155 31.5122 11.1966C32.5295 11.1778 33.3624 12.0296 33.3624 13.0468V14.4915C33.3624 13.49 34.175 12.6774 35.1773 12.6774C36.1789 12.6774 36.9914 13.49 36.9914 14.4915V15.6892C36.9914 14.6876 37.804 13.8751 38.8063 13.8751C39.8079 13.8751 40.6205 14.6876 40.6205 15.6892Z" fill="url(#paint17_linear_639_10223)"/>
<path d="M40.6196 27.0397C40.1775 27.0397 39.7347 26.935 39.3391 26.7371C38.1435 26.1387 35.8088 24.8557 33.6063 22.9853C30.7412 20.5522 29.0431 17.9405 28.5588 15.2229C28.1827 13.1117 28.7197 10.9566 30.032 9.30997C31.2473 7.78503 32.9696 6.89397 34.8815 6.80072C34.9938 6.79523 35.1078 6.79248 35.2199 6.79248C37.0111 6.79248 38.7021 7.48276 39.9813 8.73625C40.2124 8.96268 40.4254 9.20291 40.6194 9.45507C40.8135 9.20291 41.0266 8.9626 41.2576 8.73617C42.5368 7.48276 44.2278 6.79248 46.0191 6.79248C46.1313 6.79248 46.2451 6.79523 46.3575 6.80072C48.2694 6.89389 49.9917 7.78503 51.2071 9.31005C52.5194 10.9567 53.0564 13.1118 52.6801 15.2229C52.196 17.9404 50.4978 20.5521 47.6327 22.9853C45.4303 24.8556 43.0956 26.1386 41.8999 26.7371C41.5044 26.9351 41.0616 27.0397 40.6196 27.0397Z" fill="url(#paint18_linear_639_10223)"/>
<path d="M40.6204 5.28783C39.9261 5.28783 39.3633 4.725 39.3633 4.03073V1.41669C39.3633 0.722492 39.9261 0.159668 40.6204 0.159668C41.3146 0.159668 41.8775 0.722491 41.8775 1.41677V4.03081C41.8775 4.725 41.3146 5.28783 40.6204 5.28783Z" fill="url(#paint19_linear_639_10223)"/>
<path d="M37.3811 6.14428C36.8902 6.63518 36.0943 6.63518 35.6033 6.14428L33.7549 4.29588C33.264 3.80498 33.264 3.00906 33.7549 2.51808C34.2458 2.02718 35.0417 2.02718 35.5326 2.51808L37.381 4.36647C37.8721 4.85738 37.8721 5.65338 37.3811 6.14428Z" fill="url(#paint20_linear_639_10223)"/>
<path d="M43.8594 6.14428C43.3685 5.65338 43.3685 4.85745 43.8594 4.36647L45.7078 2.51808C46.1987 2.02718 46.9946 2.02718 47.4856 2.51808C47.9765 3.00898 47.9765 3.8049 47.4856 4.29581L45.6372 6.1442C45.1462 6.63518 44.3503 6.63518 43.8594 6.14428Z" fill="url(#paint21_linear_639_10223)"/>
</g>
</g>
<defs>
<linearGradient id="paint0_linear_639_10223" x1="46.1186" y1="22.9837" x2="52.1764" y2="32.5789" gradientUnits="userSpaceOnUse">
<stop stop-color="#FFDFCF"/>
<stop offset="1" stop-color="#FFA78F"/>
</linearGradient>
<linearGradient id="paint1_linear_639_10223" x1="46.5734" y1="27.3521" x2="47.5408" y2="31.326" gradientUnits="userSpaceOnUse">
<stop stop-color="#FFDFCF"/>
<stop offset="1" stop-color="#FFA78F"/>
</linearGradient>
<linearGradient id="paint2_linear_639_10223" x1="50.1182" y1="25.0495" x2="55.3934" y2="36.9083" gradientUnits="userSpaceOnUse">
<stop stop-color="#FFDFCF"/>
<stop offset="1" stop-color="#FFA78F"/>
</linearGradient>
<linearGradient id="paint3_linear_639_10223" x1="50.9532" y1="20.0056" x2="56.3535" y2="20.0056" gradientUnits="userSpaceOnUse">
<stop stop-color="#FFDFCF"/>
<stop offset="1" stop-color="#FFA78F"/>
</linearGradient>
<linearGradient id="paint4_linear_639_10223" x1="47.1505" y1="17.6973" x2="52.523" y2="17.6973" gradientUnits="userSpaceOnUse">
<stop stop-color="#FFDFCF"/>
<stop offset="1" stop-color="#FFA78F"/>
</linearGradient>
<linearGradient id="paint5_linear_639_10223" x1="43.6739" y1="18.4374" x2="49.2041" y2="18.4374" gradientUnits="userSpaceOnUse">
<stop stop-color="#FFDFCF"/>
<stop offset="1" stop-color="#FFA78F"/>
</linearGradient>
<linearGradient id="paint6_linear_639_10223" x1="40.2805" y1="20.6045" x2="45.9332" y2="20.6045" gradientUnits="userSpaceOnUse">
<stop stop-color="#FFDFCF"/>
<stop offset="1" stop-color="#FFA78F"/>
</linearGradient>
<linearGradient id="paint7_linear_639_10223" x1="48.46" y1="34.3278" x2="46.5907" y2="40.559" gradientUnits="userSpaceOnUse">
<stop stop-color="#F89580" stop-opacity="0"/>
<stop offset="0.9972" stop-color="#C5715A"/>
</linearGradient>
<linearGradient id="paint8_linear_639_10223" x1="51.814" y1="26.0163" x2="45.6963" y2="20.7614" gradientUnits="userSpaceOnUse">
<stop stop-color="#F89580" stop-opacity="0"/>
<stop offset="0.9972" stop-color="#C5715A"/>
</linearGradient>
<linearGradient id="paint9_linear_639_10223" x1="28.9684" y1="21.151" x2="42.3017" y2="36.3144" gradientUnits="userSpaceOnUse">
<stop stop-color="#FFDFCF"/>
<stop offset="1" stop-color="#FFA78F"/>
</linearGradient>
<linearGradient id="paint10_linear_639_10223" x1="31.3255" y1="27.5827" x2="35.4431" y2="34.0533" gradientUnits="userSpaceOnUse">
<stop stop-color="#FFDFCF"/>
<stop offset="1" stop-color="#FFA78F"/>
</linearGradient>
<linearGradient id="paint11_linear_639_10223" x1="25.9304" y1="26.2043" x2="30.7539" y2="36.5965" gradientUnits="userSpaceOnUse">
<stop stop-color="#FFDFCF"/>
<stop offset="1" stop-color="#FFA78F"/>
</linearGradient>
<linearGradient id="paint12_linear_639_10223" x1="30.2877" y1="20.0056" x2="24.8874" y2="20.0056" gradientUnits="userSpaceOnUse">
<stop stop-color="#FFA78F"/>
<stop offset="1" stop-color="#FFDFCF"/>
</linearGradient>
<linearGradient id="paint13_linear_639_10223" x1="34.0901" y1="17.6973" x2="28.7175" y2="17.6973" gradientUnits="userSpaceOnUse">
<stop stop-color="#FFA78F"/>
<stop offset="1" stop-color="#FFDFCF"/>
</linearGradient>
<linearGradient id="paint14_linear_639_10223" x1="37.5666" y1="18.4374" x2="32.0364" y2="18.4374" gradientUnits="userSpaceOnUse">
<stop stop-color="#FFA78F"/>
<stop offset="1" stop-color="#FFDFCF"/>
</linearGradient>
<linearGradient id="paint15_linear_639_10223" x1="40.9604" y1="20.6045" x2="35.3077" y2="20.6045" gradientUnits="userSpaceOnUse">
<stop stop-color="#FFA78F"/>
<stop offset="1" stop-color="#FFDFCF"/>
</linearGradient>
<linearGradient id="paint16_linear_639_10223" x1="32.7797" y1="34.3278" x2="34.6491" y2="40.559" gradientUnits="userSpaceOnUse">
<stop stop-color="#F89580" stop-opacity="0"/>
<stop offset="0.9972" stop-color="#C5715A"/>
</linearGradient>
<linearGradient id="paint17_linear_639_10223" x1="45.0918" y1="31.6225" x2="37.9806" y2="21.0604" gradientUnits="userSpaceOnUse">
<stop stop-color="#F89580" stop-opacity="0"/>
<stop offset="0.9972" stop-color="#C5715A"/>
</linearGradient>
<linearGradient id="paint18_linear_639_10223" x1="36.7625" y1="10.5238" x2="47.5902" y2="21.3516" gradientUnits="userSpaceOnUse">
<stop stop-color="#FD3581"/>
<stop offset="1" stop-color="#972437"/>
</linearGradient>
<linearGradient id="paint19_linear_639_10223" x1="39.5008" y1="2.72618" x2="42.9922" y2="2.72618" gradientUnits="userSpaceOnUse">
<stop stop-color="#97DA7B"/>
<stop offset="0.1327" stop-color="#91D67A"/>
<stop offset="0.3049" stop-color="#81CC75"/>
<stop offset="0.4987" stop-color="#66BB6C"/>
<stop offset="0.7084" stop-color="#41A461"/>
<stop offset="0.9286" stop-color="#128653"/>
<stop offset="1" stop-color="#017B4E"/>
</linearGradient>
<linearGradient id="paint20_linear_639_10223" x1="34.6428" y1="5.17206" x2="37.1112" y2="2.70365" gradientUnits="userSpaceOnUse">
<stop stop-color="#97DA7B"/>
<stop offset="0.1327" stop-color="#91D67A"/>
<stop offset="0.3049" stop-color="#81CC75"/>
<stop offset="0.4987" stop-color="#66BB6C"/>
<stop offset="0.7084" stop-color="#41A461"/>
<stop offset="0.9286" stop-color="#128653"/>
<stop offset="1" stop-color="#017B4E"/>
</linearGradient>
<linearGradient id="paint21_linear_639_10223" x1="44.8424" y1="3.45235" x2="47.3109" y2="5.92081" gradientUnits="userSpaceOnUse">
<stop stop-color="#97DA7B"/>
<stop offset="0.1327" stop-color="#91D67A"/>
<stop offset="0.3049" stop-color="#81CC75"/>
<stop offset="0.4987" stop-color="#66BB6C"/>
<stop offset="0.7084" stop-color="#41A461"/>
<stop offset="0.9286" stop-color="#128653"/>
<stop offset="1" stop-color="#017B4E"/>
</linearGradient>
<clipPath id="clip0_639_10223">
<rect width="80" height="40" fill="white" transform="translate(0.620117 0.159668)"/>
</clipPath>
</defs>
</svg>
