<svg width="18" height="13" viewBox="0 0 18 13" fill="none" xmlns="http://www.w3.org/2000/svg">
<path d="M14 5V1.5C14 0.95 13.55 0.5 13 0.5H1C0.45 0.5 0 0.95 0 1.5V11.5C0 12.05 0.45 12.5 1 12.5H13C13.55 12.5 14 12.05 14 11.5V8L16.29 10.29C16.92 10.92 18 10.47 18 9.58V3.41C18 2.52 16.92 2.07 16.29 2.7L14 5ZM10 7.5H8V9.5C8 10.05 7.55 10.5 7 10.5C6.45 10.5 6 10.05 6 9.5V7.5H4C3.45 7.5 3 7.05 3 6.5C3 5.95 3.45 5.5 4 5.5H6V3.5C6 2.95 6.45 2.5 7 2.5C7.55 2.5 8 2.95 8 3.5V5.5H10C10.55 5.5 11 5.95 11 6.5C11 7.05 10.55 7.5 10 7.5Z" fill="#0167FF"/>
</svg>
