<svg width="18" height="25" viewBox="0 0 18 25" fill="none" xmlns="http://www.w3.org/2000/svg">
<path d="M15 24.9568C14.1667 24.9568 13.4583 24.5929 12.875 23.8649C12.2917 23.137 12 22.2532 12 21.2133C12 21.0677 12.0083 20.9167 12.025 20.7603C12.0417 20.6039 12.0667 20.4637 12.1 20.3398L5.05 15.2237C4.76667 15.5356 4.45 15.7802 4.1 15.9574C3.75 16.1346 3.38333 16.2228 3 16.2219C2.16667 16.2219 1.45833 15.858 0.875 15.1301C0.291667 14.4022 0 13.5183 0 12.4784C0 11.4385 0.291667 10.5546 0.875 9.82674C1.45833 9.09884 2.16667 8.73488 3 8.73488C3.38333 8.73488 3.75 8.82348 4.1 9.00067C4.45 9.17787 4.76667 9.42203 5.05 9.73315L12.1 4.61701C12.0667 4.49222 12.0417 4.35205 12.025 4.19649C12.0083 4.04092 12 3.88993 12 3.74352C12 2.70365 12.2917 1.81977 12.875 1.09186C13.4583 0.363953 14.1667 0 15 0C15.8333 0 16.5417 0.363953 17.125 1.09186C17.7083 1.81977 18 2.70365 18 3.74352C18 4.78339 17.7083 5.66727 17.125 6.39518C16.5417 7.12309 15.8333 7.48704 15 7.48704C14.6167 7.48704 14.25 7.39886 13.9 7.2225C13.55 7.04614 13.2333 6.80156 12.95 6.48877L5.9 11.6049C5.93333 11.7297 5.95833 11.8703 5.975 12.0267C5.99167 12.1831 6 12.3337 6 12.4784C6 12.6232 5.99167 12.7741 5.975 12.9314C5.95833 13.0886 5.93333 13.2288 5.9 13.3519L12.95 18.468C13.2333 18.1561 13.55 17.9119 13.9 17.7356C14.25 17.5592 14.6167 17.4706 15 17.4698C15.8333 17.4698 16.5417 17.8337 17.125 18.5616C17.7083 19.2895 18 20.1734 18 21.2133C18 22.2532 17.7083 23.137 17.125 23.8649C16.5417 24.5929 15.8333 24.9568 15 24.9568Z" fill="#37ADFF"/>
</svg>
