<svg width="19" height="17" viewBox="0 0 19 17" fill="none" xmlns="http://www.w3.org/2000/svg">
<path d="M13.8759 1.36C14.3699 1.35958 14.859 1.45801 15.3145 1.64951C15.77 1.84101 16.1828 2.12172 16.5286 2.4752C17.2413 3.20034 17.6408 4.17735 17.6408 5.1952C17.6408 6.21306 17.2413 7.19006 16.5286 7.9152L9.5 15.0484L2.47136 7.9152C1.75871 7.19006 1.35925 6.21306 1.35925 5.1952C1.35925 4.17735 1.75871 3.20034 2.47136 2.4752C2.81743 2.12198 3.23025 1.84141 3.68571 1.64988C4.14117 1.45835 4.63014 1.35971 5.12406 1.35971C5.61798 1.35971 6.10695 1.45835 6.56241 1.64988C7.01787 1.84141 7.43069 2.12198 7.77676 2.4752L9.5 4.2432L11.2165 2.4888C11.5613 2.13111 11.9745 1.84679 12.4315 1.65284C12.8884 1.45888 13.3797 1.35929 13.8759 1.36ZM13.8759 1.82434e-06C13.2013 -0.000571226 12.5334 0.133863 11.9113 0.395423C11.2891 0.656983 10.7254 1.0404 10.2531 1.5232L9.5 2.2848L8.74693 1.5232C8.27402 1.04127 7.71014 0.65852 7.08814 0.397251C6.46614 0.135983 5.79847 0.00142625 5.12406 0.00142625C4.44965 0.00142625 3.78198 0.135983 3.15998 0.397251C2.53798 0.65852 1.9741 1.04127 1.50119 1.5232C0.539077 2.50487 0 3.82593 0 5.202C0 6.57808 0.539077 7.89914 1.50119 8.8808L9.5 17L17.4988 8.8808C18.4609 7.89914 19 6.57808 19 5.202C19 3.82593 18.4609 2.50487 17.4988 1.5232C17.0258 1.04132 16.4619 0.658505 15.84 0.397011C15.218 0.135518 14.5504 0.000565486 13.8759 1.82434e-06Z" fill="#37ADFF"/>
</svg>
