<svg width="17" height="17" viewBox="0 0 17 17" fill="none" xmlns="http://www.w3.org/2000/svg">
<path d="M14.236 4.82047H12.6603V3.14815C12.6603 1.95263 11.717 0.980469 10.5182 0.980469H6.48271C5.28335 0.980469 4.34031 1.95263 4.34031 3.14815V4.82047H2.76431C1.69039 4.82047 0.820312 5.64959 0.820312 6.72031V14.0825C0.820312 15.1529 1.69039 16.0205 2.76431 16.0205H14.236C15.3096 16.0205 16.1803 15.1529 16.1803 14.0822V6.72031C16.1803 5.64959 15.3096 4.82047 14.236 4.82047ZM5.62031 3.14815C5.62031 2.70047 6.03375 2.26047 6.48271 2.26047H10.5182C10.9659 2.26047 11.3803 2.70047 11.3803 3.14815V4.82047H5.62031V3.14815ZM12.0203 11.8605H9.78031V14.1005H7.22031V11.8605H4.98031V9.30047H7.22031V7.06047H9.78031V9.30047H12.0203V11.8605Z" fill="white"/>
</svg>
